Coordinates
version=1
nRows=29
nColumns=22
inDegrees=yes

Units are S.I. units (second, meters, Newtons, ...)
If the header above contains a line with 'inDegrees', this indicates whether rotational values are in degrees (yes) or radians (no).

endheader
time	pelvis_tilt	pelvis_list	pelvis_rotation	pelvis_tx	pelvis_ty	pelvis_tz	hip_flexion_r	hip_adduction_r	hip_rotation_r	knee_angle_r	ankle_angle_r	subtalar_angle_r	hip_flexion_l	hip_adduction_l	hip_rotation_l	knee_angle_l	ankle_angle_l	subtalar_angle_l	lumbar_extension	lumbar_bending	lumbar_rotation
      1.36000000	     -5.34525717	      1.73641793	     -3.53850381	     -0.91100988	      0.86752759	     -0.09201563	     32.65495878	     -8.37597103	     12.16543598	    -62.47351011	      4.98453866	      6.37715757	     -4.86742526	      0.87087864	     -2.29662467	     -6.65143923	     22.06429015	      5.05902845	     -3.56923035	     -4.18924985	      6.02774840
      1.37000000	     -5.22493659	      1.50726950	     -3.06245655	     -0.90708205	      0.86740781	     -0.09323972	     33.72698242	     -8.36306898	     11.53758051	    -63.13811243	      5.29622465	      5.59333745	     -5.38102915	      0.66112432	     -1.92217897	     -6.39232533	     22.08138398	      5.01101208	     -3.85115509	     -4.01605650	      5.24719317
      1.38000000	     -5.16370973	      1.27299405	     -2.58702429	     -0.90302499	      0.86724624	     -0.09447627	     34.73089570	     -8.43833066	     10.79389057	    -63.33215788	      5.72057868	      4.88636409	     -5.76644725	      0.44200007	     -1.52792936	     -6.26436531	     22.12778879	      4.87661161	     -4.05909468	     -3.81943013	      4.49790278
      1.39000000	     -5.13927041	      1.02177666	     -2.12723161	     -0.89882976	      0.86708247	     -0.09568887	     35.63150548	     -8.56887701	      9.96018691	    -63.05701409	      6.17155313	      4.23604689	     -6.05060790	      0.20478051	     -1.14000805	     -6.26668445	     22.18092627	      4.66612515	     -4.21989808	     -3.58984838	      3.79814589
      1.40000000	     -5.13084311	      0.74067155	     -1.69830877	     -0.89448010	      0.86693042	     -0.09683100	     36.39654829	     -8.70839282	      9.07912518	    -62.32421823	      6.58257858	      3.67591004	     -6.27064505	     -0.06292247	     -0.75599297	     -6.37856909	     22.27131796	      4.40450776	     -4.35724648	     -3.31794046	      3.16387657
      1.41000000	     -5.11874824	      0.42455773	     -1.31809829	     -0.88993828	      0.86679261	     -0.09785438	     36.99791489	     -8.81669406	      8.19260866	    -61.15165607	      6.93020311	      3.19944662	     -6.46519378	     -0.36561387	     -0.39496141	     -6.57613475	     22.40120559	      4.09765968	     -4.48809230	     -2.99996984	      2.60564493
      1.42000000	     -5.09110940	      0.06733195	     -0.98808222	     -0.88520161	      0.86666856	     -0.09872288	     37.41652384	     -8.86066616	      7.33094717	    -59.55323693	      7.15948930	      2.88489881	     -6.64820209	     -0.71341153	     -0.08428005	     -6.85932799	     22.55694227	      3.78456356	     -4.63082106	     -2.63275298	      2.10878799
      1.43000000	     -5.06614124	     -0.32075135	     -0.71033142	     -0.88026777	      0.86647248	     -0.09943657	     37.68109008	     -8.83422154	      6.52294747	    -57.56746454	      7.29931894	      2.75689793	     -6.81082153	     -1.09482566	      0.22322189	     -7.21178814	     22.79294247	      3.50928681	     -4.76228407	     -2.22786767	      1.71308512
      1.44000000	     -5.00605023	     -0.74341625	     -0.49632861	     -0.87508768	      0.86624631	     -0.09994166	     37.74723413	     -8.70631316	      5.79789703	    -55.21002974	      7.31112602	      2.73449825	     -7.01710199	     -1.51542092	      0.45385656	     -7.59902761	     23.04794012	      3.18367588	     -4.92380761	     -1.78339211	      1.37494030
      1.45000000	     -4.89542916	     -1.17366816	     -0.34038052	     -0.86965751	      0.86597265	     -0.10028012	     37.61339834	     -8.50855622	      5.17104865	    -52.52016323	      7.20790861	      2.91623989	     -7.29766469	     -1.94434392	      0.62347621	     -7.99409258	     23.30038433	      2.80502834	     -5.13585452	     -1.32528400	      1.10742026
      1.46000000	     -4.80669824	     -1.59727708	     -0.22106098	     -0.86402971	      0.86548765	     -0.10045575	     37.38105786	     -8.25475171	      4.66215704	    -49.55293937	      6.97477889	      3.35115298	     -7.55127709	     -2.37374664	      0.76424633	     -8.43824499	     23.63022362	      2.52564080	     -5.31807339	     -0.87320592	      0.88220652
      1.47000000	     -4.71859309	     -1.98891505	     -0.13530958	     -0.85821181	      0.86480864	     -0.10048675	     37.04513806	     -7.96931869	      4.29759550	    -46.35141214	      6.62865375	      4.03406390	     -7.82211901	     -2.77506941	      0.87508903	     -8.88626095	     23.98819781	      2.30221147	     -5.49938876	     -0.45389067	      0.68948827
      1.48000000	     -4.64789336	     -2.33327585	     -0.07061456	     -0.85219816	      0.86387949	     -0.10039730	     36.64566782	     -7.68381065	      4.06480629	    -42.97218299	      6.20737099	      4.88460538	     -8.09436201	     -3.13392067	      0.95667712	     -9.33514497	     24.38776619	      2.14602962	     -5.65841573	     -0.08292059	      0.51276424
      1.49000000	     -4.60233306	     -2.61605929	     -0.01895845	     -0.84600155	      0.86268339	     -0.10020525	     36.21306236	     -7.42108875	      3.96485578	    -39.47174455	      5.74335836	      5.86072017	     -8.36730772	     -3.43602347	      1.01779826	     -9.76555471	     24.81170136	      2.05169879	     -5.78721397	      0.22554612	      0.34131449
      1.50000000	     -4.58504433	     -2.83505029	      0.03222846	     -0.83963281	      0.86121900	     -0.09994034	     35.76655345	     -7.19569652	      3.98674099	    -35.90134816	      5.29332486	      6.85750323	     -8.63596887	     -3.67977748	      1.05747862	    -10.17633087	     25.25670023	      2.01353371	     -5.88448130	      0.47229374	      0.15844941
      1.51000000	     -4.60046370	     -2.98364153	      0.08457102	     -0.83310767	      0.85949559	     -0.09958376	     35.33228505	     -7.01777741	      4.13450741	    -32.31608270	      4.88175474	      7.84435128	     -8.90010360	     -3.86191544	      1.08231361	    -10.55499766	     25.70749625	      2.02779076	     -5.94702578	      0.64483277	     -0.03420155
      1.52000000	     -4.65330451	     -3.07207183	      0.13928719	     -0.82643408	      0.85752628	     -0.09917650	     34.92579717	     -6.88799637	      4.39902396	    -28.75481500	      4.53763744	      8.80159878	     -9.15511488	     -3.98908184	      1.09593663	    -10.90146867	     26.15265622	      2.08970643	     -5.97116375	      0.76256716	     -0.22409257
      1.53000000	     -4.73706493	     -3.10712479	      0.19837126	     -0.81961583	      0.85534708	     -0.09870821	     34.55194508	     -6.80740477	      4.76548115	    -25.25959488	      4.27565167	      9.71552057	     -9.40797170	     -4.07050026	      1.08961561	    -11.21552681	     26.58863842	      2.19241174	     -5.96536075	      0.82962936	     -0.41892318
      1.54000000	     -4.84706107	     -3.10001920	      0.26194918	     -0.81264827	      0.85298696	     -0.09819245	     34.21436622	     -6.77534198	      5.20645288	    -21.86863965	      4.09318805	     10.58787042	     -9.66436892	     -4.11715530	      1.05705887	    -11.49674797	     27.01524985	      2.32507851	     -5.93438846	      0.86096980	     -0.61678973
      1.55000000	     -4.98192175	     -3.04966457	      0.32888573	     -0.80552987	      0.85047289	     -0.09765172	     33.92285635	     -6.80178374	      5.67837065	    -18.62312982	      3.97135552	     11.47822297	     -9.92774027	     -4.12400607	      1.00855776	    -11.74289888	     27.40880326	      2.49030149	     -5.88157089	      0.85788746	     -0.80690350
      1.56000000	     -5.13544979	     -2.95894815	      0.39954841	     -0.79824388	      0.84783143	     -0.09708857	     33.68724642	     -6.88793383	      6.10144470	    -15.58236174	      3.88690282	     12.38704080	    -10.20640342	     -4.09426378	      0.94811574	    -11.95388767	     27.76144234	      2.67680756	     -5.81181165	      0.82309395	     -0.98648902
      1.57000000	     -5.29127731	     -2.86935025	      0.47050396	     -0.79075132	      0.84512011	     -0.09646500	     33.48762643	     -6.98313134	      6.38594247	    -12.78695003	      3.82933459	     13.31323917	    -10.52488935	     -4.07482663	      0.86082985	    -12.12133812	     28.06087121	      2.86869045	     -5.74047487	      0.80163579	     -1.15021210
      1.58000000	     -5.43961216	     -2.72293234	      0.55143165	     -0.78308017	      0.84236006	     -0.09583044	     33.35920941	     -7.13864058	      6.44720736	    -10.34980016	      3.79438902	     14.31063211	    -10.87657468	     -3.99958668	      0.79129297	    -12.27049432	     28.32369558	      3.09402465	     -5.68503303	      0.72954778	     -1.32720442
      1.59000000	     -5.57766007	     -2.58115136	      0.62971813	     -0.77517648	      0.83960279	     -0.09511804	     33.29728115	     -7.26599069	      6.20169171	     -8.32883178	      3.77750066	     15.27235359	    -11.27395274	     -3.93779998	      0.71667160	    -12.39383386	     28.51842338	      3.32678583	     -5.64285697	      0.67528917	     -1.48502149
      1.60000000	     -5.69371752	     -2.43585409	      0.69927476	     -0.76706125	      0.83689835	     -0.09428243	     33.30963438	     -7.35044094	      5.64959733	     -6.79876281	      3.77857951	     16.15612066	    -11.71698493	     -3.88307167	      0.63288822	    -12.51121767	     28.66229649	      3.58143093	     -5.63134063	      0.62359089	     -1.63638465
      1.61000000	     -5.78863547	     -2.30406041	      0.74283058	     -0.75874121	      0.83429429	     -0.09327094	     33.39939161	     -7.35875941	      4.85868851	     -5.79454115	      3.78375558	     16.88152696	    -12.20231939	     -3.85352017	      0.51861120	    -12.62782036	     28.73271747	      3.86763656	     -5.65335260	      0.59020908	     -1.76563503
      1.62000000	     -5.86564075	     -2.20969922	      0.77528229	     -0.75022270	      0.83184987	     -0.09212875	     33.54172191	     -7.28447979	      3.89997218	     -5.28994829	      3.71916504	     17.28880387	    -12.71110830	     -3.87319428	      0.42409731	    -12.76577045	     28.72544642	      4.16624696	     -5.70440466	      0.61292910	     -1.88143577
      1.63000000	     -5.97136558	     -2.15857871	      0.77572305	     -0.74149535	      0.82953607	     -0.09077786	     33.79511510	     -7.11965944	      2.89632981	     -5.29721835	      3.64489381	     17.33666634	    -13.21272734	     -3.94786261	      0.34699382	    -12.88968002	     28.57831284	      4.37866826	     -5.72856266	      0.68716563	     -1.98018945
      1.64000000	     -6.01797301	     -2.17262815	      0.75633888	     -0.73264151	      0.82754826	     -0.08926617	     34.00794779	     -6.86579210	      1.96845843	     -5.67525082	      3.32413254	     16.99991341	    -13.74546564	     -4.10439678	      0.24504508	    -13.09197728	     28.36925620	      4.88989127	     -5.84410342	      0.84799919	     -2.06370780
